<svg width="50" height="19" viewBox="0 0 50 19" fill="none" xmlns="http://www.w3.org/2000/svg">
<path id="Vector" d="M40.1459 18.854C40.0994 18.8076 40.0625 18.7524 40.0373 18.6917C40.0122 18.631 39.9992 18.566 39.9992 18.5003C39.9992 18.4346 40.0122 18.3695 40.0373 18.3088C40.0625 18.2481 40.0994 18.193 40.1459 18.1465L48.2921 10.0003L1.04232 10.094C0.909717 10.094 0.782539 10.0414 0.68877 9.9476C0.595001 9.85383 0.542324 9.72665 0.542324 9.59405C0.542324 9.46144 0.595001 9.33426 0.68877 9.24049C0.782539 9.14672 0.909717 9.09405 1.04232 9.09405L48.2921 9.00028L40.1459 0.854028C40.0994 0.807573 40.0626 0.752422 40.0374 0.691726C40.0123 0.631029 39.9993 0.565975 39.9993 0.500278C39.9993 0.43458 40.0123 0.369526 40.0374 0.308829C40.0626 0.248133 40.0994 0.192982 40.1459 0.146527C40.1923 0.100072 40.2475 0.0632221 40.3082 0.0380807C40.3689 0.0129394 40.4339 -4.18147e-07 40.4996 -4.15275e-07C40.5653 -4.12404e-07 40.6304 0.0129394 40.6911 0.0380808C40.7518 0.0632221 40.8069 0.100072 40.8534 0.146527L49.8534 9.14653C49.8998 9.19296 49.9367 9.24811 49.9619 9.30881C49.987 9.36951 50 9.43457 50 9.50028C50 9.56599 49.987 9.63105 49.9619 9.69175C49.9367 9.75245 49.8998 9.80759 49.8534 9.85403L40.8534 18.854C40.8069 18.9005 40.7518 18.9374 40.6911 18.9626C40.6304 18.9877 40.5653 19.0007 40.4996 19.0007C40.4339 19.0007 40.3688 18.9877 40.3081 18.9626C40.2474 18.9374 40.1923 18.9005 40.1459 18.854Z" fill="#3D4836"/>
</svg>
