<svg width="50" height="19" viewBox="0 0 50 19" fill="none" xmlns="http://www.w3.org/2000/svg">
<path id="Vector" d="M9.85414 0.14646C9.90063 0.192896 9.93751 0.248039 9.96267 0.308739C9.98784 0.369438 10.0008 0.434502 10.0008 0.50021C10.0008 0.565918 9.98784 0.630982 9.96267 0.691681C9.93751 0.75238 9.90063 0.807524 9.85414 0.85396L1.70789 9.00021L48.9577 8.90644C49.0903 8.90644 49.2175 8.95912 49.3112 9.05289C49.405 9.14666 49.4577 9.27383 49.4577 9.40644C49.4577 9.53905 49.405 9.66623 49.3112 9.76C49.2175 9.85376 49.0903 9.90644 48.9577 9.90644L1.70789 10.0002L9.85414 18.1465C9.9006 18.1929 9.93745 18.2481 9.96259 18.3088C9.98773 18.3695 10.0007 18.4345 10.0007 18.5002C10.0007 18.5659 9.98773 18.631 9.96259 18.6917C9.93745 18.7524 9.9006 18.8075 9.85414 18.854C9.80769 18.9004 9.75254 18.9373 9.69184 18.9624C9.63114 18.9875 9.56609 19.0005 9.50039 19.0005C9.4347 19.0005 9.36964 18.9875 9.30894 18.9624C9.24825 18.9373 9.1931 18.9004 9.14664 18.854L0.146643 9.85396C0.100155 9.80752 0.0632758 9.75238 0.0381137 9.69168C0.0129516 9.63098 1.12506e-07 9.56592 1.1329e-07 9.50021C1.14073e-07 9.4345 0.0129516 9.36944 0.0381137 9.30874C0.0632759 9.24804 0.100155 9.1929 0.146643 9.14646L9.14664 0.14646C9.19308 0.0999719 9.24822 0.0630914 9.30892 0.0379296C9.36962 0.0127679 9.43468 -0.000182993 9.50039 -0.000182992C9.5661 -0.000182991 9.63116 0.0127679 9.69186 0.0379297C9.75256 0.0630914 9.80771 0.0999719 9.85414 0.14646Z" fill="#3D4836"/>
</svg>
