<svg width="100" height="68" viewBox="0 0 100 68" fill="none" xmlns="http://www.w3.org/2000/svg">
<g id="Layer_1" clip-path="url(#clip0_2563_110)">
<path id="Vector" d="M18.7832 24.5806H15.7832V27.2445H18.7832V24.5806Z" fill="#212120"/>
<path id="Vector_2" d="M13.5029 11.8438H10.5029V14.5076H13.5029V11.8438Z" fill="#212120"/>
<path id="Vector_3" d="M13.5029 24.5806H10.5029V27.2445H13.5029V24.5806Z" fill="#212120"/>
<path id="Vector_4" d="M13.5029 21.4424H10.5029V24.1063H13.5029V21.4424Z" fill="#212120"/>
<path id="Vector_5" d="M18.7832 31.0435H15.7832V33.7073H18.7832V31.0435Z" fill="#212120"/>
<path id="Vector_6" d="M18.7832 34.1816H15.7832V36.8455H18.7832V34.1816Z" fill="#212120"/>
<path id="Vector_7" d="M18.7832 40.6416H15.7832V43.3055H18.7832V40.6416Z" fill="#212120"/>
<path id="Vector_8" d="M18.7832 43.7798H15.7832V46.4465H18.7832V43.7798Z" fill="#212120"/>
<path id="Vector_9" d="M13.5029 14.979H10.5029V17.6429H13.5029V14.979Z" fill="#212120"/>
<path id="Vector_10" d="M13.5029 31.0435H10.5029V33.7073H13.5029V31.0435Z" fill="#212120"/>
<path id="Vector_11" d="M89.8058 21.4424H86.8086V24.1063H89.8058V21.4424Z" fill="#212120"/>
<path id="Vector_12" d="M7.24195 15.4448H7.25306H7.26695C8.06973 15.1994 8.41139 14.873 8.41139 14.3542V12.4546H6.09473V14.3542C6.09473 14.873 6.43917 15.2022 7.24195 15.4448Z" fill="#212120"/>
<path id="Vector_13" d="M89.8058 11.8438H86.8086V14.5076H89.8058V11.8438Z" fill="#212120"/>
<path id="Vector_14" d="M89.8058 14.979H86.8086V17.6429H89.8058V14.979Z" fill="#212120"/>
<path id="Vector_15" d="M13.5029 34.1816H10.5029V36.8455H13.5029V34.1816Z" fill="#212120"/>
<path id="Vector_16" d="M13.5029 40.6416H10.5029V43.3055H13.5029V40.6416Z" fill="#212120"/>
<path id="Vector_17" d="M13.5029 43.7798H10.5029V46.4465H13.5029V43.7798Z" fill="#212120"/>
<path id="Vector_18" d="M84.5282 14.979H81.5254V17.6429H84.5282V14.979Z" fill="#212120"/>
<path id="Vector_19" d="M84.5282 21.4424H81.5254V24.1063H84.5282V21.4424Z" fill="#212120"/>
<path id="Vector_20" d="M84.5282 24.5806H81.5254V27.2445H84.5282V24.5806Z" fill="#212120"/>
<path id="Vector_21" d="M92.8972 15.4421H92.9083H92.9195C93.7222 15.1966 94.0639 14.8702 94.0639 14.3514V12.4546H91.75V14.3514C91.75 14.8702 92.0917 15.1966 92.8945 15.4421H92.8972Z" fill="#212120"/>
<path id="Vector_22" d="M84.5282 11.8438H81.5254V14.5076H84.5282V11.8438Z" fill="#212120"/>
<path id="Vector_23" d="M18.7832 21.4424H15.7832V24.1063H18.7832V21.4424Z" fill="#212120"/>
<path id="Vector_24" d="M78.1308 15.4421H78.1419H78.1558C78.9585 15.1966 79.3002 14.8702 79.3002 14.3514V12.4546H76.9863V14.3514C76.9863 14.8702 77.3308 15.1966 78.1308 15.4421Z" fill="#212120"/>
<path id="Vector_25" d="M84.5282 43.7798H81.5254V46.4465H84.5282V43.7798Z" fill="#212120"/>
<path id="Vector_26" d="M84.5282 40.6416H81.5254V43.3055H84.5282V40.6416Z" fill="#212120"/>
<path id="Vector_27" d="M84.5282 34.1816H81.5254V36.8455H84.5282V34.1816Z" fill="#212120"/>
<path id="Vector_28" d="M18.7832 11.8438H15.7832V14.5076H18.7832V11.8438Z" fill="#212120"/>
<path id="Vector_29" d="M22.0496 15.4421H22.0607H22.0718C22.8746 15.1966 23.2162 14.8702 23.2162 14.3514V12.4546H20.9023V14.3514C20.9023 14.8702 21.244 15.1966 22.0468 15.4421H22.0496Z" fill="#212120"/>
<path id="Vector_30" d="M89.8058 43.7798H86.8086V46.4465H89.8058V43.7798Z" fill="#212120"/>
<path id="Vector_31" d="M89.8058 24.5806H86.8086V27.2445H89.8058V24.5806Z" fill="#212120"/>
<path id="Vector_32" d="M18.7832 14.979H15.7832V17.6429H18.7832V14.979Z" fill="#212120"/>
<path id="Vector_33" d="M89.8058 31.0435H86.8086V33.7073H89.8058V31.0435Z" fill="#212120"/>
<path id="Vector_34" d="M89.8058 40.6416H86.8086V43.3055H89.8058V40.6416Z" fill="#212120"/>
<path id="Vector_35" d="M89.8058 34.1816H86.8086V36.8455H89.8058V34.1816Z" fill="#212120"/>
<path id="Vector_36" d="M84.5282 31.0435H81.5254V33.7073H84.5282V31.0435Z" fill="#212120"/>
<path id="Vector_37" d="M51.3696 60.6113H50.8252V63.8694H51.3696V60.6113Z" fill="#212120"/>
<path id="Vector_38" d="M49.1831 60.6113H48.6387V63.8694H49.1831V60.6113Z" fill="#212120"/>
<path id="Vector_39" d="M0 0.027832V1.81864H0.986111V4.2538H2.06944V6.87864H3.99444V46.8816H3.53611V48.6613H3.99444V67.8553H7.48056V67.3978H21.975V67.8553H25.1167V67.3978H39.6111V67.8553H42.7528V67.3978H57.2472V67.8553H60.3861V67.3978H74.8806V67.8553H78.0222V67.3978H92.5167V67.8553H96.0056V48.6613H96.2278V46.8816H96.0056V6.87864H97.9278V4.2538H99V1.81864H100V0.027832H0ZM10.7417 66.9375H7.57222V65.8134H10.7417V66.9375ZM10.7417 65.2416H7.57222V61.2583H10.7417V65.2416ZM14.4583 66.9375H11.2889V65.8134H14.4583V66.9375ZM14.4583 65.2416H11.2889V61.2583H14.4583V65.2416ZM18.1722 66.9375H15.0028V65.8134H18.1722V66.9375ZM18.1722 65.2416H15.0028V61.2583H18.1722V65.2416ZM21.8889 66.9375H18.7194V65.8134H21.8889V66.9375ZM21.8889 65.2416H18.7194V61.2583H21.8889V65.2416ZM21.8889 57.4368H7.57222V56.971H21.8889V57.4368ZM10.7417 52.7255V56.427H7.57222V52.7255H10.7417ZM7.57222 52.1536V50.745H10.7417V52.1536H7.57222ZM14.4583 52.7255V56.427H11.2889V52.7255H14.4583ZM11.2889 52.1536V50.745H14.4583V52.1536H11.2889ZM18.1722 52.7255V56.427H15.0028V52.7255H18.1722ZM15.0028 52.1536V50.745H18.1722V52.1536H15.0028ZM21.8889 56.4242H18.7194V52.7227H21.8889V56.4242ZM21.8889 52.1536H18.7194V50.745H21.8889V52.1536ZM24.6639 67.3978H22.4333V62.9682H24.6639V67.3978ZM28.3778 66.9375H25.2083V65.8134H28.3778V66.9375ZM28.3778 65.2416H25.2083V61.2583H28.3778V65.2416ZM32.0944 66.9375H28.925V65.8134H32.0944V66.9375ZM32.0944 65.2416H28.925V61.2583H32.0944V65.2416ZM35.8083 66.9375H32.6389V65.8134H35.8083V66.9375ZM35.8083 65.2416H32.6389V61.2583H35.8083V65.2416ZM39.525 66.9375H36.3556V65.8134H39.525V66.9375ZM39.525 65.2416H36.3556V61.2583H39.525V65.2416ZM39.525 57.4368H25.2083V56.971H39.525V57.4368ZM28.3778 52.7255V56.427H25.2083V52.7255H28.3778ZM25.2083 52.1536V50.745H28.3778V52.1536H25.2083ZM32.0944 52.7255V56.427H28.925V52.7255H32.0944ZM28.9222 52.1536V50.745H32.0917V52.1536H28.9222ZM35.8083 52.7255V56.427H32.6389V52.7255H35.8083ZM32.6389 52.1536V50.745H35.8083V52.1536H32.6389ZM39.525 56.4242H36.3556V52.7227H39.525V56.4242ZM39.525 52.1536H36.3556V50.745H39.525V52.1536ZM42.2972 67.3978H40.0667V62.9682H42.2972V67.3978ZM42.2972 62.4187H40.0667V56.971H40.85V57.9835H42.2972V62.4187ZM45.6139 66.9375H42.8444V65.6516H45.6139V66.9375ZM49.7222 66.9375H46.1583V65.6516H49.7222V66.9375ZM49.7222 65.1049H46.1583V57.9835H49.7222V65.1049ZM53.8306 66.9375H50.2667V65.6516H53.8306V66.9375ZM53.8306 65.1049H50.2667V57.9835H53.8306V65.1049ZM57.1583 66.9375H54.375V65.6516H57.1583V66.9375ZM41.3972 57.4368V56.971H58.6167V57.4368H41.3972ZM59.9333 67.3978H57.7056V62.9682H59.9333V67.3978ZM59.9333 62.4187H57.7056V57.9835H59.1639V56.971H59.9333V62.4187ZM59.9333 56.4242H40.0694V55.7576H59.9333V56.4242ZM42.8444 55.2108V50.7422H46.0139V55.2108H42.8444ZM46.5583 55.2108V50.7422H49.7278V55.2108H46.5583ZM50.275 55.2108V50.7422H53.4444V55.2108H50.275ZM53.9889 55.2108V50.7422H57.1583V55.2108H53.9889ZM63.65 66.9375H60.4806V65.8134H63.65V66.9375ZM63.65 65.2416H60.4806V61.2583H63.65V65.2416ZM67.3639 66.9375H64.1945V65.8134H67.3639V66.9375ZM67.3639 65.2416H64.1945V61.2583H67.3639V65.2416ZM71.0778 66.9375H67.9083V65.8134H71.0778V66.9375ZM71.0778 65.2416H67.9083V61.2583H71.0778V65.2416ZM74.7917 66.9375H71.6222V65.8134H74.7917V66.9375ZM74.7917 65.2416H71.6222V61.2583H74.7917V65.2416ZM74.7917 57.4368H60.4778V56.971H74.7917V57.4368ZM63.65 52.7255V56.427H60.4806V52.7255H63.65ZM60.4806 52.1536V50.745H63.65V52.1536H60.4806ZM67.3639 52.7255V56.427H64.1945V52.7255H67.3639ZM64.1945 52.1536V50.745H67.3639V52.1536H64.1945ZM71.0778 52.7255V56.427H67.9083V52.7255H71.0778ZM67.9083 52.1536V50.745H71.0778V52.1536H67.9083ZM74.7917 56.4242H71.6222V52.7227H74.7917V56.4242ZM74.7917 52.1536H71.6222V50.745H74.7917V52.1536ZM77.5667 67.3978H75.3361V62.9682H77.5667V67.3978ZM81.2833 66.9375H78.1139V65.8134H81.2833V66.9375ZM81.2833 65.2416H78.1139V61.2583H81.2833V65.2416ZM84.9972 66.9375H81.8278V65.8134H84.9972V66.9375ZM84.9972 65.2416H81.8278V61.2583H84.9972V65.2416ZM88.7139 66.9375H85.5444V65.8134H88.7139V66.9375ZM88.7139 65.2416H85.5444V61.2583H88.7139V65.2416ZM92.4278 66.9375H89.2583V65.8134H92.4278V66.9375ZM92.4278 65.2416H89.2583V61.2583H92.4278V65.2416ZM92.4278 57.4368H78.1111V56.971H92.4278V57.4368ZM81.2833 52.7255V56.427H78.1139V52.7255H81.2833ZM78.1139 52.1536V50.745H81.2833V52.1536H78.1139ZM84.9972 52.7255V56.427H81.8278V52.7255H84.9972ZM81.8278 52.1536V50.745H84.9972V52.1536H81.8278ZM88.7139 52.7255V56.427H85.5444V52.7255H88.7139ZM85.5444 52.1536V50.745H88.7139V52.1536H85.5444ZM92.4278 56.4242H89.2583V52.7227H92.4278V56.4242ZM92.4278 52.1536H89.2583V50.745H92.4278V52.1536ZM95.55 67.3978H92.975V50.1983H77.5695V62.4215H75.3389V50.1983H59.9333V55.2136H57.7056V50.1983H42.3V55.2136H40.0694V50.1983H24.6639V62.4215H22.4333V50.1983H7.02778V67.3978H4.45278V48.7617H95.55V67.3978ZM95.7694 48.201H3.99444V47.3391H95.7694V48.201ZM39.0167 10.2622V10.8424C39.0167 10.8675 39.0194 10.8926 39.0222 10.9205C39.0222 10.9317 39.0222 10.94 39.025 10.954H4.45278V10.265H39.0167V10.2622ZM4.45278 9.71268V7.77125H38.8806V9.71268H4.45278ZM56.8361 10.2622V10.8424C56.8361 10.8759 56.8361 10.9121 56.8389 10.9512H43.6861C43.6889 10.9093 43.6889 10.8759 43.6889 10.8424V10.2622H56.8333H56.8361ZM43.8444 9.71268V7.77125H56.6917V9.71268H43.8444ZM53.7944 14.1479V11.5007H56.5056V14.1479H53.7944ZM56.5056 14.6193V17.4924H53.7944V14.6193H56.5056ZM50.5389 14.1479V11.5007H53.25V14.1479H50.5389ZM53.25 14.6193V17.4924H50.5389V14.6193H53.25ZM47.2833 14.1479V11.5007H49.9944V14.1479H47.2833ZM49.9944 14.6193V17.4924H47.2833V14.6193H49.9944ZM44.0278 14.1479V11.5007H46.7389V14.1479H44.0278ZM46.7361 14.6193V17.4924H44.025V14.6193H46.7361ZM57.5028 18.0391V18.491H43.0278V18.0391H57.5028ZM95.55 10.2622V10.9512H61.5056C61.5056 10.9512 61.5056 10.9289 61.5083 10.9177C61.5083 10.8926 61.5139 10.8647 61.5139 10.8396V10.2594H95.5472L95.55 10.2622ZM61.65 9.71268V7.77125H95.55V9.71268H61.65ZM95.55 11.4979V46.7896H75.6472V11.4979H95.55ZM71.4917 14.1479V11.5007H74.2028V14.1479H71.4917ZM74.2 14.6193V17.4924H71.4889V14.6193H74.2ZM68.2472 14.1479V11.5007H70.9444V14.1479H68.2472ZM70.9472 14.6193V17.4924H68.25V14.6193H70.9472ZM64.9917 14.1479V11.5007H67.6917V14.1479H64.9917ZM67.6917 14.6193V17.4924H64.9917V14.6193H67.6917ZM61.7361 14.1479V11.5007H64.4472V14.1479H61.7361ZM64.4445 14.6193V17.4924H61.7333V14.6193H64.4445ZM75.0889 18.0391V18.491H60.8472V18.0391H75.0889ZM71.4917 43.5316V40.9095H74.2028V43.5316H71.4917ZM74.2 44.0058V46.7896H71.4889V44.0058H74.2ZM60.8472 38.0308V37.565H75.0889V38.0308H60.8472ZM68.2472 43.5316V40.9095H70.9444V43.5316H68.2472ZM70.9472 44.0058V46.7896H68.25V44.0058H70.9472ZM64.9917 43.5316V40.9095H67.6917V43.5316H64.9917ZM67.6917 44.0058V46.7896H64.9917V44.0058H67.6917ZM61.7361 43.5316V40.9095H64.4472V43.5316H61.7361ZM64.4445 44.0058V46.7896H61.7333V44.0058H64.4445ZM57.825 44.0058V43.5316H60.5222V44.0058H57.825ZM60.5083 46.7924H57.8444L58.0333 44.5553H60.3194L60.5083 46.7924ZM58.05 42.9848V13.4672H60.2917V42.9848H58.05ZM57.825 12.9205V11.8968H60.5222V12.9205H57.825ZM60.4639 11.3361H57.8722C57.5972 11.3361 57.3806 11.1185 57.3806 10.8424V9.25801H60.9667V10.8424C60.9667 11.1185 60.7444 11.3361 60.4611 11.3361H60.4639ZM64.4445 34.1731V37.0183H61.7333V34.1731H64.4445ZM61.7361 33.6989V31.0629H64.4472V33.6989H61.7361ZM67.6917 34.1731V37.0183H64.9917V34.1731H67.6917ZM64.9917 33.6989V31.0629H67.6917V33.6989H64.9917ZM70.9472 34.1731V37.0183H68.25V34.1731H70.9472ZM68.2472 33.6989V31.0629H70.9444V33.6989H68.2472ZM74.2 34.1731V37.0183H71.4889V34.1731H74.2ZM71.4917 33.6989V31.0629H74.2028V33.6989H71.4917ZM60.8472 28.2595V27.8076H75.0889V28.2595H60.8472ZM64.4445 24.3794V27.2497H61.7333V24.3794H64.4445ZM61.7361 23.9052V21.2832H64.4472V23.9052H61.7361ZM67.6917 24.3794V27.2497H64.9917V24.3794H67.6917ZM64.9917 23.9052V21.2832H67.6917V23.9052H64.9917ZM70.9472 24.3794V27.2497H68.25V24.3794H70.9472ZM68.2472 23.9052V21.2832H70.9444V23.9052H68.2472ZM74.2 24.3794V27.2497H71.4889V24.3794H74.2ZM71.4917 23.9052V21.2832H74.2028V23.9052H71.4917ZM61.1056 8.71128H57.2333V7.77404H61.1056V8.71128ZM53.7944 43.5316V40.9095H56.5056V43.5316H53.7944ZM56.5056 44.0058V46.7896H53.7944V44.0058H56.5056ZM43.0278 38.0308V37.565H57.5028V38.0308H43.0278ZM50.5389 43.5316V40.9095H53.25V43.5316H50.5389ZM53.25 44.0058V46.7896H50.5389V44.0058H53.25ZM47.2833 43.5316V40.9095H49.9944V43.5316H47.2833ZM49.9944 44.0058V46.7896H47.2833V44.0058H49.9944ZM44.0278 43.5316V40.9095H46.7389V43.5316H44.0278ZM46.7361 44.0058V46.7896H44.025V44.0058H46.7361ZM40.0194 44.0058V43.5316H42.7056V44.0058H40.0194ZM42.6889 46.7924H40.0361L40.2139 44.5553H42.5L42.6889 46.7924ZM40.2417 42.9848V13.4672H42.4833V42.9848H40.2417ZM40.0194 12.9205V11.8968H42.7056V12.9205H40.0194ZM42.6583 11.3361H40.0667C39.7861 11.3361 39.5611 11.1185 39.5611 10.8424V9.25801H43.1472V10.8424C43.1472 11.1185 42.9333 11.3361 42.6556 11.3361H42.6583ZM46.7361 24.3794V27.2497H44.025V24.3794H46.7361ZM44.0278 23.9052V21.2832H46.7389V23.9052H44.0278ZM57.2806 27.8076V28.2595H43.0278V27.8076H57.2806ZM49.9944 24.3794V27.2497H47.2833V24.3794H49.9944ZM47.2833 23.9052V21.2832H49.9944V23.9052H47.2833ZM53.25 24.3794V27.2497H50.5389V24.3794H53.25ZM50.5389 23.9052V21.2832H53.25V23.9052H50.5389ZM56.5056 24.3794V27.2497H53.7944V24.3794H56.5056ZM53.7944 23.9052V21.2832H56.5056V23.9052H53.7944ZM53.7944 33.6989V31.0629H56.5056V33.6989H53.7944ZM56.5056 34.1731V37.0183H53.7944V34.1731H56.5056ZM50.5389 33.6989V31.0629H53.25V33.6989H50.5389ZM53.25 34.1731V37.0183H50.5389V34.1731H53.25ZM47.2833 33.6989V31.0629H49.9944V33.6989H47.2833ZM49.9944 34.1731V37.0183H47.2833V34.1731H49.9944ZM44.0278 33.6989V31.0629H46.7389V33.6989H44.0278ZM46.7361 34.1731V37.0183H44.025V34.1731H46.7361ZM43.2972 8.71128H39.425V7.77404H43.2972V8.71128ZM39.6972 18.0391V18.491H25.4333V18.0391H39.6972ZM36.0833 43.5316V40.9095H38.7944V43.5316H36.0833ZM38.7972 44.0058V46.7896H36.0861V44.0058H38.7972ZM25.4306 38.0308V37.565H39.6944V38.0308H25.4306ZM32.8417 43.5316V40.9095H35.5389V43.5316H32.8417ZM35.5389 44.0058V46.7896H32.8417V44.0058H35.5389ZM29.5861 43.5316V40.9095H32.2833V43.5316H29.5861ZM32.2833 44.0058V46.7896H29.5861V44.0058H32.2833ZM26.3278 43.5316V40.9095H29.0389V43.5316H26.3278ZM29.0417 44.0058V46.7896H26.3306V44.0058H29.0417ZM29.0417 34.1731V37.0183H26.3306V34.1731H29.0417ZM26.3278 33.6989V31.0629H29.0389V33.6989H26.3278ZM32.2833 34.1731V37.0183H29.5861V34.1731H32.2833ZM29.5861 33.6989V31.0629H32.2833V33.6989H29.5861ZM35.5389 34.1731V37.0183H32.8417V34.1731H35.5389ZM32.8417 33.6989V31.0629H35.5389V33.6989H32.8417ZM38.7972 34.1731V37.0183H36.0861V34.1731H38.7972ZM36.0833 33.6989V31.0629H38.7944V33.6989H36.0833ZM25.4306 28.2595V27.8076H39.6944V28.2595H25.4306ZM29.0417 24.3794V27.2497H26.3306V24.3794H29.0417ZM26.3278 23.9052V21.2832H29.0389V23.9052H26.3278ZM32.2833 24.3794V27.2497H29.5861V24.3794H32.2833ZM29.5861 23.9052V21.2832H32.2833V23.9052H29.5861ZM35.5389 24.3794V27.2497H32.8417V24.3794H35.5389ZM32.8417 23.9052V21.2832H35.5389V23.9052H32.8417ZM38.7972 24.3794V27.2497H36.0861V24.3794H38.7972ZM36.0833 23.9052V21.2832H38.7944V23.9052H36.0833ZM29.0417 14.6193V17.4924H26.3306V14.6193H29.0417ZM26.3278 14.1479V11.5007H29.0389V14.1479H26.3278ZM32.2833 14.6193V17.4924H29.5861V14.6193H32.2833ZM29.5861 14.1479V11.5007H32.2833V14.1479H29.5861ZM35.5389 14.6193V17.4924H32.8417V14.6193H35.5389ZM32.8417 14.1479V11.5007H35.5389V14.1479H32.8417ZM38.7972 14.6193V17.4924H36.0861V14.6193H38.7972ZM36.0833 14.1479V11.5007H38.7944V14.1479H36.0833ZM24.8833 11.4979V46.7896H4.45278V11.4979H24.8833ZM97.4722 6.42117H2.52778V5.65687H97.4722V6.42117ZM2.52778 5.11015V4.34585H4.33889V5.11015H2.52778ZM5.19445 5.11015V4.34585H7.00556V5.11015H5.19445ZM7.84444 5.11015V4.34585H9.66667V5.11015H7.84444ZM10.5083 5.11015V4.34585H12.3194V5.11015H10.5083ZM13.1722 5.11015V4.34585H14.9833V5.11015H13.1722ZM15.8361 5.11015V4.34585H17.6472V5.11015H15.8361ZM18.4861 5.11015V4.34585H20.3083V5.11015H18.4861ZM21.15 5.11015V4.34585H22.9611V5.11015H21.15ZM23.8139 5.11015V4.34585H25.625V5.11015H23.8139ZM26.4778 5.11015V4.34585H28.2889V5.11015H26.4778ZM29.1306 5.11015V4.34585H30.9528V5.11015H29.1306ZM31.7944 5.11015V4.34585H33.6056V5.11015H31.7944ZM34.4556 5.11015V4.34585H36.2667V5.11015H34.4556ZM37.1194 5.11015V4.34585H38.9306V5.11015H37.1194ZM39.7722 5.11015V4.34585H41.5944V5.11015H39.7722ZM42.4361 5.11015V4.34585H44.2472V5.11015H42.4361ZM45.1 5.11015V4.34585H46.9111V5.11015H45.1ZM47.7639 5.11015V4.34585H49.575V5.11015H47.7639ZM50.4167 5.11015V4.34585H52.2389V5.11015H50.4167ZM53.0806 5.11015V4.34585H54.8917V5.11015H53.0806ZM55.7417 5.11015V4.34585H57.5528V5.11015H55.7417ZM58.4056 5.11015V4.34585H60.2167V5.11015H58.4056ZM61.0583 5.11015V4.34585H62.8833V5.11015H61.0583ZM63.7222 5.11015V4.34585H65.5333V5.11015H63.7222ZM66.3861 5.11015V4.34585H68.1972V5.11015H66.3861ZM69.05 5.11015V4.34585H70.8611V5.11015H69.05ZM71.7 5.11015V4.34585H73.525V5.11015H71.7ZM74.3639 5.11015V4.34585H76.175V5.11015H74.3639ZM77.0278 5.11015V4.34585H78.8389V5.11015H77.0278ZM79.6917 5.11015V4.34585H81.5028V5.11015H79.6917ZM82.3417 5.11015V4.34585H84.1667V5.11015H82.3417ZM85.0056 5.11015V4.34585H86.8167V5.11015H85.0056ZM87.6722 5.11015V4.34585H89.4833V5.11015H87.6722ZM90.3333 5.11015V4.34585H92.1444V5.11015H90.3333ZM92.9861 5.11015V4.34585H94.8111V5.11015H92.9861ZM95.65 5.11015V4.34585H97.4611V5.11015H95.65ZM98.5444 3.79633H1.44444V3.02087H98.5472V3.79633H98.5444ZM99.5444 1.36117H0.455556V0.485296H99.5444V1.36117Z" fill="#212120"/>
</g>
<defs>
<clipPath id="clip0_2563_110">
<rect width="100" height="67.8832" fill="white"/>
</clipPath>
</defs>
</svg>
